<?xml version="1.0" encoding="UTF-8" standalone="no"?>
<!DOCTYPE svg PUBLIC "-//W3C//DTD SVG 1.1//EN"
 "http://www.w3.org/Graphics/SVG/1.1/DTD/svg11.dtd">
<!-- Generated by graphviz version 2.40.1 (20161225.0304)
 -->
<!-- Title: %3 Pages: 1 -->
<svg width="973pt" height="332pt"
 viewBox="0.00 0.00 973.42 332.00" xmlns="http://www.w3.org/2000/svg" xmlns:xlink="http://www.w3.org/1999/xlink">
<g id="graph0" class="graph" transform="scale(1 1) rotate(0) translate(4 328)">
<title>%3</title>
<polygon fill="#ffffff" stroke="transparent" points="-4,4 -4,-328 969.4202,-328 969.4202,4 -4,4"/>
<!-- 1 -->
<g id="node1" class="node">
<title>1</title>
<ellipse fill="none" stroke="#000000" cx="360.4458" cy="-306" rx="36.2938" ry="18"/>
<text text-anchor="middle" x="360.4458" y="-302.3" font-family="Times,serif" font-size="14.00" fill="#000000">endaira</text>
</g>
<!-- 15 -->
<g id="node2" class="node">
<title>15</title>
<ellipse fill="none" stroke="#000000" cx="94.4458" cy="-234" rx="50.0912" ry="18"/>
<text text-anchor="middle" x="94.4458" y="-230.3" font-family="Times,serif" font-size="14.00" fill="#000000">cl&#45;ansi&#45;text</text>
</g>
<!-- 1&#45;&gt;15 -->
<g id="edge1" class="edge">
<title>1&#45;&gt;15</title>
<path fill="none" stroke="#000000" d="M328.2247,-297.524C288.3278,-286.9972 218.3095,-268.4192 158.4458,-252 153.7533,-250.713 148.8708,-249.3617 143.9881,-248.0023"/>
<polygon fill="#000000" stroke="#000000" points="144.5992,-244.539 134.0261,-245.2183 142.7151,-251.2807 144.5992,-244.539"/>
</g>
<!-- 14 -->
<g id="node7" class="node">
<title>14</title>
<ellipse fill="none" stroke="#000000" cx="273.4458" cy="-162" rx="72.5877" ry="18"/>
<text text-anchor="middle" x="273.4458" y="-158.3" font-family="Times,serif" font-size="14.00" fill="#000000">endaira.substitute</text>
</g>
<!-- 1&#45;&gt;14 -->
<g id="edge2" class="edge">
<title>1&#45;&gt;14</title>
<path fill="none" stroke="#000000" d="M336.0738,-292.603C321.2038,-283.1708 303.0708,-269.1808 292.4458,-252 280.9475,-233.407 276.3134,-208.9633 274.4903,-190.243"/>
<polygon fill="#000000" stroke="#000000" points="277.9776,-189.9421 273.7259,-180.2378 270.9979,-190.4754 277.9776,-189.9421"/>
</g>
<!-- 12 -->
<g id="node8" class="node">
<title>12</title>
<ellipse fill="none" stroke="#000000" cx="902.4458" cy="-234" rx="55.7903" ry="18"/>
<text text-anchor="middle" x="902.4458" y="-230.3" font-family="Times,serif" font-size="14.00" fill="#000000">endaira.copy</text>
</g>
<!-- 1&#45;&gt;12 -->
<g id="edge3" class="edge">
<title>1&#45;&gt;12</title>
<path fill="none" stroke="#000000" d="M396.0079,-301.2759C486.5371,-289.2499 726.5944,-257.3603 840.6265,-242.2122"/>
<polygon fill="#000000" stroke="#000000" points="841.1474,-245.6738 850.5994,-240.8873 840.2255,-238.7348 841.1474,-245.6738"/>
</g>
<!-- 11 -->
<g id="node10" class="node">
<title>11</title>
<ellipse fill="none" stroke="#000000" cx="360.4458" cy="-234" rx="59.2899" ry="18"/>
<text text-anchor="middle" x="360.4458" y="-230.3" font-family="Times,serif" font-size="14.00" fill="#000000">treat&#45;as&#45;circle</text>
</g>
<!-- 1&#45;&gt;11 -->
<g id="edge5" class="edge">
<title>1&#45;&gt;11</title>
<path fill="none" stroke="#000000" d="M360.4458,-287.8314C360.4458,-280.131 360.4458,-270.9743 360.4458,-262.4166"/>
<polygon fill="#000000" stroke="#000000" points="363.9459,-262.4132 360.4458,-252.4133 356.9459,-262.4133 363.9459,-262.4132"/>
</g>
<!-- 10 -->
<g id="node11" class="node">
<title>10</title>
<ellipse fill="none" stroke="#000000" cx="487.4458" cy="-234" rx="50.0912" ry="18"/>
<text text-anchor="middle" x="487.4458" y="-230.3" font-family="Times,serif" font-size="14.00" fill="#000000">prompt&#45;for</text>
</g>
<!-- 1&#45;&gt;10 -->
<g id="edge6" class="edge">
<title>1&#45;&gt;10</title>
<path fill="none" stroke="#000000" d="M384.6325,-292.2879C403.5242,-281.5776 430.0697,-266.5282 451.455,-254.4042"/>
<polygon fill="#000000" stroke="#000000" points="453.2938,-257.3852 460.2669,-249.4085 449.8414,-251.2957 453.2938,-257.3852"/>
</g>
<!-- 2 -->
<g id="node12" class="node">
<title>2</title>
<ellipse fill="none" stroke="#000000" cx="646.4458" cy="-234" rx="55.4913" ry="18"/>
<text text-anchor="middle" x="646.4458" y="-230.3" font-family="Times,serif" font-size="14.00" fill="#000000">structure&#45;ext</text>
</g>
<!-- 1&#45;&gt;2 -->
<g id="edge7" class="edge">
<title>1&#45;&gt;2</title>
<path fill="none" stroke="#000000" d="M392.9752,-297.8108C441.5537,-285.5812 533.6207,-262.4035 592.4085,-247.6038"/>
<polygon fill="#000000" stroke="#000000" points="593.4194,-250.9586 602.2623,-245.1231 591.7104,-244.1704 593.4194,-250.9586"/>
</g>
<!-- 8 -->
<g id="node15" class="node">
<title>8</title>
<ellipse fill="none" stroke="#000000" cx="273.4458" cy="-90" rx="60.3893" ry="18"/>
<text text-anchor="middle" x="273.4458" y="-86.3" font-family="Times,serif" font-size="14.00" fill="#000000">lambda&#45;fiddle</text>
</g>
<!-- 1&#45;&gt;8 -->
<g id="edge4" class="edge">
<title>1&#45;&gt;8</title>
<path fill="none" stroke="#000000" d="M331.5448,-294.9584C290.9389,-277.6164 218.8958,-239.6823 191.4458,-180 184.7601,-165.4638 183.8562,-158.0854 191.4458,-144 199.4139,-129.212 213.3986,-117.8073 227.587,-109.3723"/>
<polygon fill="#000000" stroke="#000000" points="229.3388,-112.4032 236.3956,-104.5005 225.9508,-106.2776 229.3388,-112.4032"/>
</g>
<!-- 16 -->
<g id="node3" class="node">
<title>16</title>
<ellipse fill="none" stroke="#000000" cx="98.4458" cy="-162" rx="41.6928" ry="18"/>
<text text-anchor="middle" x="98.4458" y="-158.3" font-family="Times,serif" font-size="14.00" fill="#000000">cl&#45;colors</text>
</g>
<!-- 15&#45;&gt;16 -->
<g id="edge9" class="edge">
<title>15&#45;&gt;16</title>
<path fill="none" stroke="#000000" d="M95.4552,-215.8314C95.883,-208.131 96.3917,-198.9743 96.8671,-190.4166"/>
<polygon fill="#000000" stroke="#000000" points="100.3626,-190.592 97.4228,-180.4133 93.3734,-190.2037 100.3626,-190.592"/>
</g>
<!-- 17 -->
<g id="node6" class="node">
<title>17</title>
<ellipse fill="none" stroke="#000000" cx="47.4458" cy="-18" rx="47.3916" ry="18"/>
<text text-anchor="middle" x="47.4458" y="-14.3" font-family="Times,serif" font-size="14.00" fill="#000000">alexandria</text>
</g>
<!-- 15&#45;&gt;17 -->
<g id="edge8" class="edge">
<title>15&#45;&gt;17</title>
<path fill="none" stroke="#000000" d="M74.153,-217.2474C64.0434,-207.5544 52.8475,-194.4339 47.4458,-180 30.8121,-135.5529 36.106,-79.3168 41.6478,-46.1432"/>
<polygon fill="#000000" stroke="#000000" points="45.1058,-46.6883 43.4283,-36.2271 38.216,-45.4511 45.1058,-46.6883"/>
</g>
<!-- 18 -->
<g id="node4" class="node">
<title>18</title>
<ellipse fill="none" stroke="#000000" cx="131.4458" cy="-90" rx="37.0935" ry="18"/>
<text text-anchor="middle" x="131.4458" y="-86.3" font-family="Times,serif" font-size="14.00" fill="#000000">let&#45;plus</text>
</g>
<!-- 16&#45;&gt;18 -->
<g id="edge10" class="edge">
<title>16&#45;&gt;18</title>
<path fill="none" stroke="#000000" d="M106.6031,-144.2022C110.3995,-135.9192 114.9955,-125.8915 119.1969,-116.7248"/>
<polygon fill="#000000" stroke="#000000" points="122.3974,-118.142 123.3823,-107.593 116.034,-115.2254 122.3974,-118.142"/>
</g>
<!-- 16&#45;&gt;17 -->
<g id="edge11" class="edge">
<title>16&#45;&gt;17</title>
<path fill="none" stroke="#000000" d="M92.0897,-144.0535C83.3475,-119.3696 67.531,-74.7111 57.2621,-45.7167"/>
<polygon fill="#000000" stroke="#000000" points="60.5197,-44.4305 53.882,-36.1727 53.9213,-46.7675 60.5197,-44.4305"/>
</g>
<!-- 19 -->
<g id="node5" class="node">
<title>19</title>
<ellipse fill="none" stroke="#000000" cx="155.4458" cy="-18" rx="42.7926" ry="18"/>
<text text-anchor="middle" x="155.4458" y="-14.3" font-family="Times,serif" font-size="14.00" fill="#000000">anaphora</text>
</g>
<!-- 18&#45;&gt;19 -->
<g id="edge12" class="edge">
<title>18&#45;&gt;19</title>
<path fill="none" stroke="#000000" d="M137.3784,-72.2022C140.0611,-64.1541 143.2929,-54.4588 146.2769,-45.5067"/>
<polygon fill="#000000" stroke="#000000" points="149.6563,-46.4362 149.4983,-35.8425 143.0155,-44.2226 149.6563,-46.4362"/>
</g>
<!-- 18&#45;&gt;17 -->
<g id="edge13" class="edge">
<title>18&#45;&gt;17</title>
<path fill="none" stroke="#000000" d="M112.8035,-74.0209C101.6224,-64.4371 87.2031,-52.0777 74.7541,-41.4071"/>
<polygon fill="#000000" stroke="#000000" points="76.7821,-38.5356 66.9117,-34.6851 72.2265,-43.8504 76.7821,-38.5356"/>
</g>
<!-- 14&#45;&gt;8 -->
<g id="edge14" class="edge">
<title>14&#45;&gt;8</title>
<path fill="none" stroke="#000000" d="M273.4458,-143.8314C273.4458,-136.131 273.4458,-126.9743 273.4458,-118.4166"/>
<polygon fill="#000000" stroke="#000000" points="276.9459,-118.4132 273.4458,-108.4133 269.9459,-118.4133 276.9459,-118.4132"/>
</g>
<!-- 13 -->
<g id="node9" class="node">
<title>13</title>
<ellipse fill="none" stroke="#000000" cx="902.4458" cy="-162" rx="35.9954" ry="18"/>
<text text-anchor="middle" x="902.4458" y="-158.3" font-family="Times,serif" font-size="14.00" fill="#000000">trestrul</text>
</g>
<!-- 12&#45;&gt;13 -->
<g id="edge15" class="edge">
<title>12&#45;&gt;13</title>
<path fill="none" stroke="#000000" d="M902.4458,-215.8314C902.4458,-208.131 902.4458,-198.9743 902.4458,-190.4166"/>
<polygon fill="#000000" stroke="#000000" points="905.9459,-190.4132 902.4458,-180.4133 898.9459,-190.4133 905.9459,-190.4132"/>
</g>
<!-- 5 -->
<g id="node19" class="node">
<title>5</title>
<ellipse fill="none" stroke="#000000" cx="737.4458" cy="-18" rx="50.8918" ry="18"/>
<text text-anchor="middle" x="737.4458" y="-14.3" font-family="Times,serif" font-size="14.00" fill="#000000">closer&#45;mop</text>
</g>
<!-- 12&#45;&gt;5 -->
<g id="edge16" class="edge">
<title>12&#45;&gt;5</title>
<path fill="none" stroke="#000000" d="M921.8913,-217.0836C931.5755,-207.3426 942.2944,-194.2285 947.4458,-180 963.7862,-134.867 976.8585,-109.9328 947.4458,-72 928.9876,-48.1949 851.5365,-33.0494 796.0653,-25.0398"/>
<polygon fill="#000000" stroke="#000000" points="796.3716,-21.5486 785.9826,-23.6267 795.4001,-28.4808 796.3716,-21.5486"/>
</g>
<!-- 7 -->
<g id="node13" class="node">
<title>7</title>
<ellipse fill="none" stroke="#000000" cx="449.4458" cy="-162" rx="85.2851" ry="18"/>
<text text-anchor="middle" x="449.4458" y="-158.3" font-family="Times,serif" font-size="14.00" fill="#000000">structure&#45;ext.as&#45;class</text>
</g>
<!-- 2&#45;&gt;7 -->
<g id="edge17" class="edge">
<title>2&#45;&gt;7</title>
<path fill="none" stroke="#000000" d="M609.3916,-220.4574C579.06,-209.3717 535.7856,-193.5557 501.896,-181.1696"/>
<polygon fill="#000000" stroke="#000000" points="502.7497,-177.7552 492.1558,-177.6098 500.3467,-184.3299 502.7497,-177.7552"/>
</g>
<!-- 6 -->
<g id="node16" class="node">
<title>6</title>
<ellipse fill="none" stroke="#000000" cx="829.4458" cy="-90" rx="108.5808" ry="18"/>
<text text-anchor="middle" x="829.4458" y="-86.3" font-family="Times,serif" font-size="14.00" fill="#000000">structure&#45;ext.make&#45;instance</text>
</g>
<!-- 2&#45;&gt;6 -->
<g id="edge18" class="edge">
<title>2&#45;&gt;6</title>
<path fill="none" stroke="#000000" d="M694.8556,-225.0189C740.2558,-215.5587 803.4842,-199.3612 819.4458,-180 833.4526,-163.0099 835.126,-137.6705 833.7689,-118.2037"/>
<polygon fill="#000000" stroke="#000000" points="837.235,-117.6877 832.7623,-108.0833 830.2694,-118.3806 837.235,-117.6877"/>
</g>
<!-- 3 -->
<g id="node17" class="node">
<title>3</title>
<ellipse fill="none" stroke="#000000" cx="681.4458" cy="-162" rx="128.8774" ry="18"/>
<text text-anchor="middle" x="681.4458" y="-158.3" font-family="Times,serif" font-size="14.00" fill="#000000">structure&#45;ext.left&#45;arrow&#45;accessors</text>
</g>
<!-- 2&#45;&gt;3 -->
<g id="edge19" class="edge">
<title>2&#45;&gt;3</title>
<path fill="none" stroke="#000000" d="M655.0975,-216.2022C659.0639,-208.0428 663.8532,-198.1904 668.2548,-189.1358"/>
<polygon fill="#000000" stroke="#000000" points="671.4263,-190.617 672.6505,-180.0931 665.1307,-187.5566 671.4263,-190.617"/>
</g>
<!-- 9 -->
<g id="node14" class="node">
<title>9</title>
<ellipse fill="none" stroke="#000000" cx="504.4458" cy="-90" rx="27" ry="18"/>
<text text-anchor="middle" x="504.4458" y="-86.3" font-family="Times,serif" font-size="14.00" fill="#000000">uiop</text>
</g>
<!-- 7&#45;&gt;9 -->
<g id="edge20" class="edge">
<title>7&#45;&gt;9</title>
<path fill="none" stroke="#000000" d="M463.0413,-144.2022C469.9303,-135.1839 478.3991,-124.0975 485.8788,-114.3059"/>
<polygon fill="#000000" stroke="#000000" points="488.8436,-116.1904 492.1327,-106.119 483.2809,-111.9411 488.8436,-116.1904"/>
</g>
<!-- 7&#45;&gt;8 -->
<g id="edge22" class="edge">
<title>7&#45;&gt;8</title>
<path fill="none" stroke="#000000" d="M409.948,-145.8418C382.8134,-134.7413 346.7314,-119.9805 318.4794,-108.4229"/>
<polygon fill="#000000" stroke="#000000" points="319.8035,-105.183 309.2227,-104.636 317.153,-111.6618 319.8035,-105.183"/>
</g>
<!-- 4 -->
<g id="node18" class="node">
<title>4</title>
<ellipse fill="none" stroke="#000000" cx="645.4458" cy="-90" rx="57.3905" ry="18"/>
<text text-anchor="middle" x="645.4458" y="-86.3" font-family="Times,serif" font-size="14.00" fill="#000000">resignal&#45;bind</text>
</g>
<!-- 7&#45;&gt;4 -->
<g id="edge23" class="edge">
<title>7&#45;&gt;4</title>
<path fill="none" stroke="#000000" d="M491.9749,-146.3771C523.299,-134.8702 565.8971,-119.222 598.2673,-107.3309"/>
<polygon fill="#000000" stroke="#000000" points="599.7813,-110.5035 607.9611,-103.7699 597.3675,-103.9328 599.7813,-110.5035"/>
</g>
<!-- 7&#45;&gt;5 -->
<g id="edge21" class="edge">
<title>7&#45;&gt;5</title>
<path fill="none" stroke="#000000" d="M447.8667,-143.7336C447.1832,-123.3464 449.4945,-90.7637 468.4458,-72 497.3607,-43.3713 607.4908,-28.9037 677.5559,-22.4466"/>
<polygon fill="#000000" stroke="#000000" points="677.939,-25.9265 687.5883,-21.5514 677.3167,-18.9542 677.939,-25.9265"/>
</g>
<!-- 6&#45;&gt;5 -->
<g id="edge24" class="edge">
<title>6&#45;&gt;5</title>
<path fill="none" stroke="#000000" d="M806.7042,-72.2022C794.657,-62.774 779.7215,-51.0853 766.8078,-40.979"/>
<polygon fill="#000000" stroke="#000000" points="768.6965,-38.0127 758.6644,-34.6058 764.3823,-43.5252 768.6965,-38.0127"/>
</g>
<!-- 3&#45;&gt;4 -->
<g id="edge25" class="edge">
<title>3&#45;&gt;4</title>
<path fill="none" stroke="#000000" d="M672.3615,-143.8314C668.2802,-135.6688 663.3808,-125.87 658.8872,-116.8827"/>
<polygon fill="#000000" stroke="#000000" points="662.0052,-115.2924 654.4025,-107.9134 655.7442,-118.423 662.0052,-115.2924"/>
</g>
<!-- 4&#45;&gt;5 -->
<g id="edge26" class="edge">
<title>4&#45;&gt;5</title>
<path fill="none" stroke="#000000" d="M667.2485,-72.937C679.5694,-63.2945 695.1281,-51.1182 708.4648,-40.6808"/>
<polygon fill="#000000" stroke="#000000" points="710.7149,-43.3643 716.4328,-34.4449 706.4007,-37.8518 710.7149,-43.3643"/>
</g>
</g>
</svg>
