<?xml version="1.0" encoding="UTF-8" standalone="no"?>
<!DOCTYPE svg PUBLIC "-//W3C//DTD SVG 1.1//EN"
 "http://www.w3.org/Graphics/SVG/1.1/DTD/svg11.dtd">
<!-- Generated by graphviz version 2.40.1 (20161225.0304)
 -->
<!-- Title: %3 Pages: 1 -->
<svg width="1368pt" height="332pt"
 viewBox="0.00 0.00 1368.44 332.00" xmlns="http://www.w3.org/2000/svg" xmlns:xlink="http://www.w3.org/1999/xlink">
<g id="graph0" class="graph" transform="scale(1 1) rotate(0) translate(4 328)">
<title>%3</title>
<polygon fill="#ffffff" stroke="transparent" points="-4,4 -4,-328 1364.4366,-328 1364.4366,4 -4,4"/>
<!-- 1 -->
<g id="node1" class="node">
<title>1</title>
<ellipse fill="none" stroke="#000000" cx="599.8962" cy="-306" rx="36.2938" ry="18"/>
<text text-anchor="middle" x="599.8962" y="-302.3" font-family="Times,serif" font-size="14.00" fill="#000000">endaira</text>
</g>
<!-- 18 -->
<g id="node2" class="node">
<title>18</title>
<ellipse fill="none" stroke="#000000" cx="134.8962" cy="-234" rx="50.0912" ry="18"/>
<text text-anchor="middle" x="134.8962" y="-230.3" font-family="Times,serif" font-size="14.00" fill="#000000">cl&#45;ansi&#45;text</text>
</g>
<!-- 1&#45;&gt;18 -->
<g id="edge1" class="edge">
<title>1&#45;&gt;18</title>
<path fill="none" stroke="#000000" d="M563.7087,-303.1912C492.3454,-297.2125 328.6917,-281.3191 193.8962,-252 189.8347,-251.1166 185.6485,-250.0873 181.4689,-248.9767"/>
<polygon fill="#000000" stroke="#000000" points="182.3632,-245.5925 171.79,-246.268 180.4767,-252.3335 182.3632,-245.5925"/>
</g>
<!-- 17 -->
<g id="node7" class="node">
<title>17</title>
<ellipse fill="none" stroke="#000000" cx="524.8962" cy="-234" rx="72.5877" ry="18"/>
<text text-anchor="middle" x="524.8962" y="-230.3" font-family="Times,serif" font-size="14.00" fill="#000000">endaira.substitute</text>
</g>
<!-- 1&#45;&gt;17 -->
<g id="edge2" class="edge">
<title>1&#45;&gt;17</title>
<path fill="none" stroke="#000000" d="M582.8775,-289.6621C573.3484,-280.5141 561.274,-268.9227 550.6137,-258.6888"/>
<polygon fill="#000000" stroke="#000000" points="552.7956,-255.9317 543.1578,-251.5312 547.9479,-260.9814 552.7956,-255.9317"/>
</g>
<!-- 15 -->
<g id="node8" class="node">
<title>15</title>
<ellipse fill="none" stroke="#000000" cx="258.8962" cy="-234" rx="55.7903" ry="18"/>
<text text-anchor="middle" x="258.8962" y="-230.3" font-family="Times,serif" font-size="14.00" fill="#000000">endaira.copy</text>
</g>
<!-- 1&#45;&gt;15 -->
<g id="edge3" class="edge">
<title>1&#45;&gt;15</title>
<path fill="none" stroke="#000000" d="M565.291,-300.1118C512.8302,-290.9867 410.1462,-272.348 323.8962,-252 319.5477,-250.9741 315.0515,-249.8542 310.5482,-248.691"/>
<polygon fill="#000000" stroke="#000000" points="311.2954,-245.2683 300.7329,-246.0952 309.5057,-252.0357 311.2954,-245.2683"/>
</g>
<!-- 12 -->
<g id="node10" class="node">
<title>12</title>
<ellipse fill="none" stroke="#000000" cx="383.8962" cy="-234" rx="50.8918" ry="18"/>
<text text-anchor="middle" x="383.8962" y="-230.3" font-family="Times,serif" font-size="14.00" fill="#000000">lambda&#45;list</text>
</g>
<!-- 1&#45;&gt;12 -->
<g id="edge5" class="edge">
<title>1&#45;&gt;12</title>
<path fill="none" stroke="#000000" d="M569.4068,-295.8369C533.341,-283.8149 472.9011,-263.6683 430.8487,-249.6509"/>
<polygon fill="#000000" stroke="#000000" points="431.7051,-246.247 421.1115,-246.4051 429.4915,-252.8878 431.7051,-246.247"/>
</g>
<!-- 11 -->
<g id="node13" class="node">
<title>11</title>
<ellipse fill="none" stroke="#000000" cx="674.8962" cy="-234" rx="59.2899" ry="18"/>
<text text-anchor="middle" x="674.8962" y="-230.3" font-family="Times,serif" font-size="14.00" fill="#000000">treat&#45;as&#45;circle</text>
</g>
<!-- 1&#45;&gt;11 -->
<g id="edge6" class="edge">
<title>1&#45;&gt;11</title>
<path fill="none" stroke="#000000" d="M616.9149,-289.6621C626.5135,-280.4474 638.6947,-268.7534 649.4119,-258.4649"/>
<polygon fill="#000000" stroke="#000000" points="652.109,-260.7275 656.899,-251.2773 647.2613,-255.6778 652.109,-260.7275"/>
</g>
<!-- 10 -->
<g id="node14" class="node">
<title>10</title>
<ellipse fill="none" stroke="#000000" cx="801.8962" cy="-234" rx="50.0912" ry="18"/>
<text text-anchor="middle" x="801.8962" y="-230.3" font-family="Times,serif" font-size="14.00" fill="#000000">prompt&#45;for</text>
</g>
<!-- 1&#45;&gt;10 -->
<g id="edge7" class="edge">
<title>1&#45;&gt;10</title>
<path fill="none" stroke="#000000" d="M629.702,-295.3762C663.1898,-283.4399 717.9232,-263.931 756.6839,-250.1153"/>
<polygon fill="#000000" stroke="#000000" points="757.9271,-253.3879 766.1715,-246.7336 755.5768,-246.7942 757.9271,-253.3879"/>
</g>
<!-- 2 -->
<g id="node15" class="node">
<title>2</title>
<ellipse fill="none" stroke="#000000" cx="977.8962" cy="-234" rx="55.4913" ry="18"/>
<text text-anchor="middle" x="977.8962" y="-230.3" font-family="Times,serif" font-size="14.00" fill="#000000">structure&#45;ext</text>
</g>
<!-- 1&#45;&gt;2 -->
<g id="edge8" class="edge">
<title>1&#45;&gt;2</title>
<path fill="none" stroke="#000000" d="M634.3582,-300.0094C689.3358,-290.3763 800.2437,-270.6307 893.8962,-252 902.9197,-250.2049 912.4719,-248.2298 921.7741,-246.2656"/>
<polygon fill="#000000" stroke="#000000" points="922.6799,-249.6513 931.733,-244.1476 921.2237,-242.8044 922.6799,-249.6513"/>
</g>
<!-- 8 -->
<g id="node18" class="node">
<title>8</title>
<ellipse fill="none" stroke="#000000" cx="762.8962" cy="-90" rx="60.3893" ry="18"/>
<text text-anchor="middle" x="762.8962" y="-86.3" font-family="Times,serif" font-size="14.00" fill="#000000">lambda&#45;fiddle</text>
</g>
<!-- 1&#45;&gt;8 -->
<g id="edge4" class="edge">
<title>1&#45;&gt;8</title>
<path fill="none" stroke="#000000" d="M636.1789,-303.9689C701.0952,-299.4949 832.9571,-286.3114 860.8962,-252 870.999,-239.593 868.5054,-230.0748 860.8962,-216 847.0022,-190.3 825.1267,-201.9936 805.8962,-180 790.0505,-161.8775 778.7342,-136.8978 771.7008,-117.8522"/>
<polygon fill="#000000" stroke="#000000" points="774.9383,-116.5078 768.3222,-108.2327 768.3338,-118.8275 774.9383,-116.5078"/>
</g>
<!-- 19 -->
<g id="node3" class="node">
<title>19</title>
<ellipse fill="none" stroke="#000000" cx="99.8962" cy="-162" rx="41.6928" ry="18"/>
<text text-anchor="middle" x="99.8962" y="-158.3" font-family="Times,serif" font-size="14.00" fill="#000000">cl&#45;colors</text>
</g>
<!-- 18&#45;&gt;19 -->
<g id="edge10" class="edge">
<title>18&#45;&gt;19</title>
<path fill="none" stroke="#000000" d="M126.2445,-216.2022C122.2481,-207.981 117.4161,-198.041 112.9872,-188.9301"/>
<polygon fill="#000000" stroke="#000000" points="116.0894,-187.306 108.5697,-179.8425 109.7938,-190.3664 116.0894,-187.306"/>
</g>
<!-- 20 -->
<g id="node6" class="node">
<title>20</title>
<ellipse fill="none" stroke="#000000" cx="150.8962" cy="-18" rx="47.3916" ry="18"/>
<text text-anchor="middle" x="150.8962" y="-14.3" font-family="Times,serif" font-size="14.00" fill="#000000">alexandria</text>
</g>
<!-- 18&#45;&gt;20 -->
<g id="edge9" class="edge">
<title>18&#45;&gt;20</title>
<path fill="none" stroke="#000000" d="M141.7157,-215.7996C145.2243,-205.4645 149.1279,-192.1925 150.8962,-180 157.642,-133.4871 155.5809,-78.6689 153.3362,-46.208"/>
<polygon fill="#000000" stroke="#000000" points="156.8164,-45.812 152.5804,-36.1009 149.8359,-46.3341 156.8164,-45.812"/>
</g>
<!-- 21 -->
<g id="node4" class="node">
<title>21</title>
<ellipse fill="none" stroke="#000000" cx="66.8962" cy="-90" rx="37.0935" ry="18"/>
<text text-anchor="middle" x="66.8962" y="-86.3" font-family="Times,serif" font-size="14.00" fill="#000000">let&#45;plus</text>
</g>
<!-- 19&#45;&gt;21 -->
<g id="edge11" class="edge">
<title>19&#45;&gt;21</title>
<path fill="none" stroke="#000000" d="M91.7389,-144.2022C87.9425,-135.9192 83.3464,-125.8915 79.1451,-116.7248"/>
<polygon fill="#000000" stroke="#000000" points="82.308,-115.2254 74.9597,-107.593 75.9445,-118.142 82.308,-115.2254"/>
</g>
<!-- 19&#45;&gt;20 -->
<g id="edge12" class="edge">
<title>19&#45;&gt;20</title>
<path fill="none" stroke="#000000" d="M106.2523,-144.0535C114.9945,-119.3696 130.811,-74.7111 141.0799,-45.7167"/>
<polygon fill="#000000" stroke="#000000" points="144.4207,-46.7675 144.46,-36.1727 137.8223,-44.4305 144.4207,-46.7675"/>
</g>
<!-- 22 -->
<g id="node5" class="node">
<title>22</title>
<ellipse fill="none" stroke="#000000" cx="42.8962" cy="-18" rx="42.7926" ry="18"/>
<text text-anchor="middle" x="42.8962" y="-14.3" font-family="Times,serif" font-size="14.00" fill="#000000">anaphora</text>
</g>
<!-- 21&#45;&gt;22 -->
<g id="edge13" class="edge">
<title>21&#45;&gt;22</title>
<path fill="none" stroke="#000000" d="M60.9636,-72.2022C58.2809,-64.1541 55.0491,-54.4588 52.0651,-45.5067"/>
<polygon fill="#000000" stroke="#000000" points="55.3264,-44.2226 48.8437,-35.8425 48.6857,-46.4362 55.3264,-44.2226"/>
</g>
<!-- 21&#45;&gt;20 -->
<g id="edge14" class="edge">
<title>21&#45;&gt;20</title>
<path fill="none" stroke="#000000" d="M85.5385,-74.0209C96.7196,-64.4371 111.1389,-52.0777 123.5879,-41.4071"/>
<polygon fill="#000000" stroke="#000000" points="126.1155,-43.8504 131.4303,-34.6851 121.5599,-38.5356 126.1155,-43.8504"/>
</g>
<!-- 17&#45;&gt;8 -->
<g id="edge15" class="edge">
<title>17&#45;&gt;8</title>
<path fill="none" stroke="#000000" d="M552.6636,-217.1995C595.9774,-190.9929 679.5918,-140.4027 727.2827,-111.5476"/>
<polygon fill="#000000" stroke="#000000" points="729.2916,-114.423 736.0356,-106.2518 725.6679,-108.4339 729.2916,-114.423"/>
</g>
<!-- 16 -->
<g id="node9" class="node">
<title>16</title>
<ellipse fill="none" stroke="#000000" cx="319.8962" cy="-162" rx="35.9954" ry="18"/>
<text text-anchor="middle" x="319.8962" y="-158.3" font-family="Times,serif" font-size="14.00" fill="#000000">trestrul</text>
</g>
<!-- 15&#45;&gt;16 -->
<g id="edge16" class="edge">
<title>15&#45;&gt;16</title>
<path fill="none" stroke="#000000" d="M273.6626,-216.5708C281.2655,-207.5968 290.6647,-196.5028 298.9986,-186.666"/>
<polygon fill="#000000" stroke="#000000" points="301.8921,-188.6652 305.6858,-178.7729 296.5512,-184.1403 301.8921,-188.6652"/>
</g>
<!-- 5 -->
<g id="node22" class="node">
<title>5</title>
<ellipse fill="none" stroke="#000000" cx="922.8962" cy="-18" rx="50.8918" ry="18"/>
<text text-anchor="middle" x="922.8962" y="-14.3" font-family="Times,serif" font-size="14.00" fill="#000000">closer&#45;mop</text>
</g>
<!-- 15&#45;&gt;5 -->
<g id="edge17" class="edge">
<title>15&#45;&gt;5</title>
<path fill="none" stroke="#000000" d="M257.2236,-215.9865C256.3836,-196.1331 258.1352,-164.3245 274.8962,-144 331.558,-75.2913 375.434,-93.3484 461.8962,-72 602.6192,-37.254 773.187,-24.6759 862.1819,-20.2678"/>
<polygon fill="#000000" stroke="#000000" points="862.5406,-23.7547 872.3623,-19.7817 862.2067,-16.7627 862.5406,-23.7547"/>
</g>
<!-- 14 -->
<g id="node11" class="node">
<title>14</title>
<ellipse fill="none" stroke="#000000" cx="443.8962" cy="-162" rx="31.6951" ry="18"/>
<text text-anchor="middle" x="443.8962" y="-158.3" font-family="Times,serif" font-size="14.00" fill="#000000">millet</text>
</g>
<!-- 12&#45;&gt;14 -->
<g id="edge19" class="edge">
<title>12&#45;&gt;14</title>
<path fill="none" stroke="#000000" d="M398.4205,-216.5708C405.8988,-207.5968 415.1439,-196.5028 423.3412,-186.666"/>
<polygon fill="#000000" stroke="#000000" points="426.2057,-188.6958 429.9188,-178.7729 420.8281,-184.2145 426.2057,-188.6958"/>
</g>
<!-- 13 -->
<g id="node12" class="node">
<title>13</title>
<ellipse fill="none" stroke="#000000" cx="532.8962" cy="-162" rx="39.7935" ry="18"/>
<text text-anchor="middle" x="532.8962" y="-158.3" font-family="Times,serif" font-size="14.00" fill="#000000">type&#45;ext</text>
</g>
<!-- 12&#45;&gt;13 -->
<g id="edge20" class="edge">
<title>12&#45;&gt;13</title>
<path fill="none" stroke="#000000" d="M414.0486,-219.4297C437.725,-207.9888 470.797,-192.0076 496.0441,-179.8077"/>
<polygon fill="#000000" stroke="#000000" points="497.8202,-182.8368 505.3013,-175.3345 494.7745,-176.534 497.8202,-182.8368"/>
</g>
<!-- 12&#45;&gt;5 -->
<g id="edge18" class="edge">
<title>12&#45;&gt;5</title>
<path fill="none" stroke="#000000" d="M382.47,-215.8846C381.9268,-195.6359 384.3665,-163.1802 402.8962,-144 466.6282,-78.0308 741.5054,-38.8578 863.8173,-24.3982"/>
<polygon fill="#000000" stroke="#000000" points="864.5871,-27.8322 874.1141,-23.1969 863.7759,-20.8794 864.5871,-27.8322"/>
</g>
<!-- 7 -->
<g id="node16" class="node">
<title>7</title>
<ellipse fill="none" stroke="#000000" cx="899.8962" cy="-162" rx="85.2851" ry="18"/>
<text text-anchor="middle" x="899.8962" y="-158.3" font-family="Times,serif" font-size="14.00" fill="#000000">structure&#45;ext.as&#45;class</text>
</g>
<!-- 2&#45;&gt;7 -->
<g id="edge21" class="edge">
<title>2&#45;&gt;7</title>
<path fill="none" stroke="#000000" d="M959.4113,-216.937C949.6234,-207.9021 937.4256,-196.6425 926.6256,-186.6733"/>
<polygon fill="#000000" stroke="#000000" points="928.785,-183.9034 919.063,-179.6924 924.0371,-189.0471 928.785,-183.9034"/>
</g>
<!-- 6 -->
<g id="node19" class="node">
<title>6</title>
<ellipse fill="none" stroke="#000000" cx="1251.8962" cy="-90" rx="108.5808" ry="18"/>
<text text-anchor="middle" x="1251.8962" y="-86.3" font-family="Times,serif" font-size="14.00" fill="#000000">structure&#45;ext.make&#45;instance</text>
</g>
<!-- 2&#45;&gt;6 -->
<g id="edge22" class="edge">
<title>2&#45;&gt;6</title>
<path fill="none" stroke="#000000" d="M1032.9276,-231.9269C1109.0164,-227.7721 1240.3437,-215.5187 1269.8962,-180 1284.435,-162.526 1277.1808,-136.5792 1267.9072,-117.0288"/>
<polygon fill="#000000" stroke="#000000" points="1270.9587,-115.3091 1263.2791,-108.0102 1264.7309,-118.5052 1270.9587,-115.3091"/>
</g>
<!-- 3 -->
<g id="node20" class="node">
<title>3</title>
<ellipse fill="none" stroke="#000000" cx="1131.8962" cy="-162" rx="128.8774" ry="18"/>
<text text-anchor="middle" x="1131.8962" y="-158.3" font-family="Times,serif" font-size="14.00" fill="#000000">structure&#45;ext.left&#45;arrow&#45;accessors</text>
</g>
<!-- 2&#45;&gt;3 -->
<g id="edge23" class="edge">
<title>2&#45;&gt;3</title>
<path fill="none" stroke="#000000" d="M1009.8051,-219.0816C1031.757,-208.8183 1061.2582,-195.0256 1085.7619,-183.5693"/>
<polygon fill="#000000" stroke="#000000" points="1087.3059,-186.7111 1094.8823,-179.3052 1084.3411,-180.3699 1087.3059,-186.7111"/>
</g>
<!-- 9 -->
<g id="node17" class="node">
<title>9</title>
<ellipse fill="none" stroke="#000000" cx="867.8962" cy="-90" rx="27" ry="18"/>
<text text-anchor="middle" x="867.8962" y="-86.3" font-family="Times,serif" font-size="14.00" fill="#000000">uiop</text>
</g>
<!-- 7&#45;&gt;9 -->
<g id="edge24" class="edge">
<title>7&#45;&gt;9</title>
<path fill="none" stroke="#000000" d="M891.8212,-143.8314C888.1772,-135.6323 883.7995,-125.7824 879.7906,-116.7624"/>
<polygon fill="#000000" stroke="#000000" points="882.8972,-115.1343 875.6374,-107.4177 876.5005,-117.9773 882.8972,-115.1343"/>
</g>
<!-- 7&#45;&gt;8 -->
<g id="edge26" class="edge">
<title>7&#45;&gt;8</title>
<path fill="none" stroke="#000000" d="M867.7758,-145.1192C848.0724,-134.7641 822.7117,-121.4359 801.8645,-110.4797"/>
<polygon fill="#000000" stroke="#000000" points="803.4192,-107.3429 792.9389,-105.7889 800.1627,-113.5393 803.4192,-107.3429"/>
</g>
<!-- 4 -->
<g id="node21" class="node">
<title>4</title>
<ellipse fill="none" stroke="#000000" cx="1007.8962" cy="-90" rx="57.3905" ry="18"/>
<text text-anchor="middle" x="1007.8962" y="-86.3" font-family="Times,serif" font-size="14.00" fill="#000000">resignal&#45;bind</text>
</g>
<!-- 7&#45;&gt;4 -->
<g id="edge27" class="edge">
<title>7&#45;&gt;4</title>
<path fill="none" stroke="#000000" d="M925.7649,-144.7542C940.5078,-134.9256 959.1321,-122.5094 974.9169,-111.9862"/>
<polygon fill="#000000" stroke="#000000" points="976.9723,-114.8225 983.3513,-106.3632 973.0894,-108.9981 976.9723,-114.8225"/>
</g>
<!-- 7&#45;&gt;5 -->
<g id="edge25" class="edge">
<title>7&#45;&gt;5</title>
<path fill="none" stroke="#000000" d="M902.8092,-143.7623C906.7494,-119.0928 913.8144,-74.8598 918.4283,-45.9731"/>
<polygon fill="#000000" stroke="#000000" points="921.8858,-46.5165 920.0069,-36.0896 914.9734,-45.4124 921.8858,-46.5165"/>
</g>
<!-- 6&#45;&gt;5 -->
<g id="edge28" class="edge">
<title>6&#45;&gt;5</title>
<path fill="none" stroke="#000000" d="M1186.1089,-75.6028C1124.5479,-62.1305 1033.7184,-42.2529 976.4629,-29.7228"/>
<polygon fill="#000000" stroke="#000000" points="977.0435,-26.2671 966.5265,-27.5483 975.547,-33.1053 977.0435,-26.2671"/>
</g>
<!-- 3&#45;&gt;4 -->
<g id="edge29" class="edge">
<title>3&#45;&gt;4</title>
<path fill="none" stroke="#000000" d="M1101.5624,-144.3868C1084.3445,-134.3893 1062.6727,-121.8057 1044.5128,-111.2612"/>
<polygon fill="#000000" stroke="#000000" points="1045.7839,-107.9521 1035.3785,-105.9575 1042.269,-114.0057 1045.7839,-107.9521"/>
</g>
<!-- 4&#45;&gt;5 -->
<g id="edge30" class="edge">
<title>4&#45;&gt;5</title>
<path fill="none" stroke="#000000" d="M987.7524,-72.937C976.5569,-63.4537 962.4679,-51.5196 950.2841,-41.1991"/>
<polygon fill="#000000" stroke="#000000" points="952.4949,-38.485 942.6022,-34.6921 947.9705,-43.8263 952.4949,-38.485"/>
</g>
</g>
</svg>
